<svg xmlns="http://www.w3.org/2000/svg" xmlns:xlink="http://www.w3.org/1999/xlink" width="98" zoomAndPan="magnify" viewBox="0 0 73.5 73.499996" height="98" preserveAspectRatio="xMidYMid meet" version="1.0"><defs><clipPath id="e3e411ea6e"><path d="M 0 0 L 73.003906 0 L 73.003906 73.003906 L 0 73.003906 Z M 0 0 " clip-rule="nonzero"/></clipPath></defs><g clip-path="url(#e3e411ea6e)"><path fill="#ffffff" d="M 0 0 L 73.003906 0 L 73.003906 73.003906 L 0 73.003906 Z M 0 0 " fill-opacity="1" fill-rule="nonzero"/><path fill="#4360e0" d="M 0 0 L 73.003906 0 L 73.003906 73.003906 L 0 73.003906 Z M 0 0 " fill-opacity="1" fill-rule="nonzero"/></g><path fill="#f7f7f7" d="M 42.21875 58.5 L 12.777344 58.5 L 12.777344 46.292969 L 15.433594 46.292969 C 15.671875 46.292969 15.855469 46.484375 15.855469 46.71875 L 15.855469 54.84375 C 15.855469 55.082031 16.050781 55.265625 16.28125 55.265625 L 38.628906 55.265625 C 38.863281 55.265625 39.054688 55.074219 39.054688 54.84375 L 39.054688 34.527344 C 39.054688 34.296875 38.871094 34.105469 38.640625 34.105469 C 29.761719 34.105469 12.769531 34.105469 12.769531 34.105469 C 12.769531 34.105469 12.769531 32.648438 12.769531 30.648438 C 12.777344 28.238281 13.492188 23.769531 15.269531 21.25 C 19.023438 15.941406 24.097656 13.9375 30.457031 14.988281 C 36.023438 15.914062 40.898438 21.171875 42.054688 26.78125 L 39.035156 26.78125 C 38.851562 26.78125 38.6875 26.664062 38.628906 26.492188 C 37.308594 22.542969 34.507812 19.378906 30.410156 18.308594 C 22.785156 16.308594 16.175781 22.3125 15.941406 30.214844 C 15.941406 30.457031 16.136719 30.648438 16.378906 30.648438 L 41.699219 30.648438 C 41.980469 30.648438 42.210938 30.871094 42.210938 31.152344 L 42.210938 58.480469 Z M 42.21875 58.5 " fill-opacity="1" fill-rule="nonzero"/><path fill="#f7f7f7" d="M 46.226562 58.34375 L 46.226562 55.796875 C 46.226562 55.59375 46.398438 55.421875 46.609375 55.402344 C 50.046875 55.101562 52.804688 53.65625 54.9375 51.097656 C 56.503906 49.234375 57.265625 46.929688 57.246094 44.585938 C 57.226562 41.707031 56.183594 39.277344 54.023438 37.164062 C 51.984375 35.175781 49.535156 34 46.621094 33.757812 C 46.398438 33.738281 46.226562 33.574219 46.226562 33.363281 L 46.226562 30.8125 C 50.800781 31.132812 55.226562 33.160156 57.902344 37.078125 C 61.203125 41.902344 61.347656 46.957031 58.113281 51.859375 C 55.429688 55.921875 51.425781 58.027344 46.226562 58.335938 Z M 46.226562 58.34375 " fill-opacity="1" fill-rule="nonzero"/></svg>